<svg xmlns="http://www.w3.org/2000/svg" width="73" height="20" viewBox="0 0 73 20" fill="none">
  <g clip-path="url(#clip0_292_1145)">
    <path d="M6.77657 0.234253H0V20H6.77657V0.234253Z" fill="#0C2340"/>
    <path d="M10.6117 0.234253H8.75049V20H10.6117C16.1344 20 20.6117 15.5748 20.6117 10.1171C20.6117 4.65942 16.1344 0.234253 10.6117 0.234253Z" fill="#0C2340"/>
    <path d="M29.3667 0.234253H22.5901V20H29.3667V0.234253Z" fill="#0C2340"/>
    <path d="M43.2061 13.2234H31.345V20H43.2061V13.2234Z" fill="#0C2340"/>
    <path d="M47.1584 0.238586H53.2062V1.7093H49.0977V3.86115H52.9415V5.3362H49.0977V7.77004H53.3407V9.26679H47.1584V0.238586Z" fill="#0C2340"/>
    <path d="M63.3839 3.6616C63.3839 5.17136 63.1192 6.20824 62.373 7.39696L64.2081 9.29718H61.8741L61.1756 8.45986C60.6029 8.89804 59.7743 9.50976 58.2515 9.50976C56.2906 9.50976 54.8416 8.52494 54.8416 6.78524C54.8416 6.34707 54.9413 5.69631 55.4923 5.01084C55.9565 4.43817 56.4164 4.16052 56.7288 3.96095C56.4294 3.70932 55.6398 3.07592 55.6398 2.05206C55.6398 1.51409 55.9392 0.0043335 58.399 0.0043335C60.8589 0.0043335 61.0975 1.32754 61.0975 1.9783C61.0975 3.36659 59.822 4.05206 59.3491 4.31236L61.1713 6.1475C61.5227 5.18438 61.5357 4.62472 61.5357 3.6616H63.3839ZM57.7656 5.14533C57.2147 5.50542 56.7895 5.95661 56.7895 6.6334C56.7895 7.58351 57.553 8.13449 58.3773 8.13449C58.963 8.13449 59.6268 7.79609 60.0389 7.4577L57.7656 5.14533ZM59.3014 2.02169C59.3014 1.53579 58.95 1.19739 58.4034 1.19739C57.8567 1.19739 57.4923 1.52277 57.4923 1.99566C57.4923 2.55965 58.2689 3.2321 58.3904 3.33188C58.6507 3.14533 59.3014 2.62039 59.3014 2.02169Z" fill="#0C2340"/>
    <path d="M70.5294 3.18435C70.4903 2.87199 70.3819 1.5965 69.0673 1.5965C67.6313 1.5965 67.0326 3.09759 67.0326 4.95876C67.0326 5.49672 67.0326 8.05637 68.9198 8.05637C69.7311 8.05637 70.5077 7.54444 70.5424 6.34704H72.5771C72.538 6.88501 72.4903 7.72232 71.7658 8.46852C70.9675 9.29282 69.9567 9.47937 69.1281 9.47937C66.0174 9.47937 65.0066 7.18002 65.0066 4.94574C65.0066 2.08674 66.6075 0.186523 69.1411 0.186523C71.1151 0.186523 72.5033 1.38392 72.5033 3.18435H70.5294Z" fill="#0C2340"/>
  </g>
  <defs>
    <clipPath id="clip0_292_1145">
      <rect width="72.5814" height="20" fill="white"/>
    </clipPath>
  </defs>
</svg>